<?xml version="1.0" encoding="UTF-8"?>
<svg width="16px" height="16px" viewBox="0 0 16 16" version="1.1" xmlns="http://www.w3.org/2000/svg" xmlns:xlink="http://www.w3.org/1999/xlink">
  <!-- Generator: Sketch 41 (35326) - http://www.bohemiancoding.com/sketch -->
  <title>mention</title>
  <desc>Created with Sketch.</desc>
  <defs></defs>
  <g id="v2" stroke="none" stroke-width="1" fill="none" fill-rule="evenodd">
    <g id="attachments-closeup-v2" transform="translate(-42.000000, -1891.000000)" fill="#666569">
      <path d="M57.4821777,1898.26507 C57.4821777,1899.14951 57.343019,1899.95818 57.0646973,1900.69109 C56.7863756,1901.42401 56.3951848,1901.99456 55.8911133,1902.40276 C55.3870418,1902.81097 54.8041211,1903.01507 54.142334,1903.01507 C53.6537248,1903.01507 53.2300636,1902.88519 52.8713379,1902.62542 C52.5126121,1902.36565 52.2714036,1902.01312 52.1477051,1901.5678 L52.036377,1901.5678 C51.7333155,1902.05023 51.3591331,1902.41204 50.9138184,1902.65325 C50.4685036,1902.89446 49.9675321,1903.01507 49.4108887,1903.01507 C48.4027456,1903.01507 47.6095407,1902.69037 47.03125,1902.04095 C46.4529593,1901.39153 46.1638184,1900.51328 46.1638184,1899.40618 C46.1638184,1898.13209 46.5472781,1897.09767 47.314209,1896.30291 C48.0811399,1895.50815 49.1109148,1895.11077 50.4035645,1895.11077 C50.8736189,1895.11077 51.3946911,1895.15252 51.9667969,1895.23602 C52.5389026,1895.31951 53.0476052,1895.43548 53.4929199,1895.58392 L53.2888184,1899.89788 L53.2888184,1900.12054 C53.2888184,1901.11013 53.6104297,1901.60491 54.2536621,1901.60491 C54.7422713,1901.60491 55.1303697,1901.28949 55.4179688,1900.65862 C55.7055678,1900.02776 55.8493652,1899.22373 55.8493652,1898.24651 C55.8493652,1897.18889 55.632896,1896.25962 55.1999512,1895.45867 C54.7670063,1894.65772 54.1516153,1894.04079 53.3537598,1893.60784 C52.5559042,1893.1749 51.6405488,1892.95843 50.607666,1892.95843 C49.2902766,1892.95843 48.1445361,1893.23056 47.1704102,1893.77483 C46.1962842,1894.31911 45.4525579,1895.09685 44.939209,1896.10809 C44.4258601,1897.11932 44.1691895,1898.29289 44.1691895,1899.62884 C44.1691895,1901.42247 44.6485141,1902.80169 45.6071777,1903.76653 C46.5658414,1904.73138 47.9419669,1905.2138 49.7355957,1905.2138 C51.1024645,1905.2138 52.5280688,1904.93548 54.0124512,1904.37884 L54.0124512,1905.90032 C52.7136166,1906.43223 51.300382,1906.69817 49.7727051,1906.69817 C47.4842822,1906.69817 45.6999576,1906.08124 44.4196777,1904.84734 C43.1393979,1903.61345 42.4992676,1901.89252 42.4992676,1899.6845 C42.4992676,1898.07024 42.8456183,1896.63381 43.5383301,1895.37518 C44.2310419,1894.11654 45.1912374,1893.15326 46.4189453,1892.48528 C47.6466533,1891.81731 49.0366947,1891.48333 50.5891113,1891.48333 C51.9312404,1891.48333 53.1264596,1891.76165 54.1748047,1892.31829 C55.2231498,1892.87494 56.0364554,1893.66814 56.6147461,1894.69793 C57.1930367,1895.72772 57.4821777,1896.91676 57.4821777,1898.26507 Z M47.9450684,1899.44329 C47.9450684,1900.88438 48.5109807,1901.60491 49.6428223,1901.60491 C50.8365131,1901.60491 51.4890131,1900.69883 51.6003418,1898.88665 L51.7116699,1896.66937 C51.3220195,1896.56422 50.9045432,1896.51165 50.4592285,1896.51165 C49.6675579,1896.51165 49.0506207,1896.77451 48.6083984,1897.30023 C48.1661762,1897.82594 47.9450684,1898.54029 47.9450684,1899.44329 Z" id="mention"></path>
    </g>
  </g>
</svg>
